HIERARCHY
ROOT joint_Root
{
	OFFSET 0.0 0.0 0.0
	CHANNELS 6 Xposition Yposition Zposition Zrotation Xrotation Yrotation 
	JOINT Hips
	{
		OFFSET 4.5925 91.4895 -427.239
		CHANNELS 6 Xposition Yposition Zposition Zrotation Xrotation Yrotation 
		JOINT Spine
		{
			OFFSET 15.7357 0.0 0.0
			CHANNELS 6 Xposition Yposition Zposition Zrotation Xrotation Yrotation 
			JOINT Chest
			{
				OFFSET 8.98455 -0.406207 0.0
				CHANNELS 6 Xposition Yposition Zposition Zrotation Xrotation Yrotation 
				JOINT Neck
				{
					OFFSET 16.3773 0.0 0.0
					CHANNELS 6 Xposition Yposition Zposition Zrotation Xrotation Yrotation 
					JOINT Head
					{
						OFFSET 6.45672 0.0 0.0
						CHANNELS 6 Xposition Yposition Zposition Zrotation Xrotation Yrotation 
						End Site
						{
							OFFSET 0.0 0.0 0.0
						}
					}
				}
				JOINT Shoulder_L
				{
					OFFSET 12.9942 -0.242716 4.98039
					CHANNELS 6 Xposition Yposition Zposition Zrotation Xrotation Yrotation 
					JOINT UpperArm_L
					{
						OFFSET 5.34809 0.0 0.0
						CHANNELS 6 Xposition Yposition Zposition Zrotation Xrotation Yrotation 
						JOINT LowerArm_L
						{
							OFFSET 24.3286 1.87007e-05 0.0
							CHANNELS 6 Xposition Yposition Zposition Zrotation Xrotation Yrotation 
							JOINT Hand_L
							{
								OFFSET 22.2916 0.0 0.0
								CHANNELS 6 Xposition Yposition Zposition Zrotation Xrotation Yrotation 
								End Site
								{
									OFFSET 0.0 0.0 0.0
								}
							}
						}
					}
				}
				JOINT Shoulder_R
				{
					OFFSET 12.9945 -0.242716 -4.98039
					CHANNELS 6 Xposition Yposition Zposition Zrotation Xrotation Yrotation 
					JOINT UpperArm_R
					{
						OFFSET -5.34813 0.0 0.0
						CHANNELS 6 Xposition Yposition Zposition Zrotation Xrotation Yrotation 
						JOINT LowerArm_R
						{
							OFFSET -24.3289 0.000322201 0.0
							CHANNELS 6 Xposition Yposition Zposition Zrotation Xrotation Yrotation 
							JOINT Hand_R
							{
								OFFSET -22.2915 -0.000108084 0.0
								CHANNELS 6 Xposition Yposition Zposition Zrotation Xrotation Yrotation 
								End Site
								{
									OFFSET 0.0 0.0 0.0
								}
							}
						}
					}
				}
			}
		}
		JOINT UpperLeg_L
		{
			OFFSET -2.19248 -6.46944 0.0
			CHANNELS 6 Xposition Yposition Zposition Zrotation Xrotation Yrotation 
			JOINT LowerLeg_L
			{
				OFFSET 39.0811 0.0 -1.23785e-05
				CHANNELS 6 Xposition Yposition Zposition Zrotation Xrotation Yrotation 
				JOINT Foot_L
				{
					OFFSET 40.9854 0.0 -1.26872e-05
					CHANNELS 6 Xposition Yposition Zposition Zrotation Xrotation Yrotation 
					JOINT Toes_L
					{
						OFFSET 11.7543 0.0 0.0
						CHANNELS 6 Xposition Yposition Zposition Zrotation Xrotation Yrotation 
						End Site
						{
							OFFSET 0.0 0.0 0.0
						}
					}
				}
			}
		}
		JOINT UpperLeg_R
		{
			OFFSET -2.19251 6.46944 0.0
			CHANNELS 6 Xposition Yposition Zposition Zrotation Xrotation Yrotation 
			JOINT LowerLeg_R
			{
				OFFSET -39.0811 -0.00228153 -0.0401928
				CHANNELS 6 Xposition Yposition Zposition Zrotation Xrotation Yrotation 
				JOINT Foot_R
				{
					OFFSET -40.9854 0.0 0.0
					CHANNELS 6 Xposition Yposition Zposition Zrotation Xrotation Yrotation 
					JOINT Toes_R
					{
						OFFSET -11.7543 0.0 0.0
						CHANNELS 6 Xposition Yposition Zposition Zrotation Xrotation Yrotation 
						End Site
						{
							OFFSET 0.0 0.0 0.0
						}
					}
				}
			}
		}
	}
}
MOTION
Frames:	7
Frame Time:	0.0333333
0.000000 0.000000 0.000000 0.000000 0.000000 -0.000000 0.512895 89.707600 527.878000 -89.753800 -2.562250 -178.239000 15.735700 0.000005 -0.000001 90.876700 80.041300 -90.085500 8.984550 -0.406207 -0.000000 12.147400 0.332236 1.546860 16.377300 -0.000001 -0.000001 3.147650 -5.927270 2.708170 6.456720 -0.000001 -0.000000 -0.442743 -5.672790 2.491740 12.994200 -0.242716 4.980390 -90.839600 2.828820 -73.461500 5.348090 -0.000007 -0.000001 -67.753600 31.044000 -12.225500 24.328600 0.000019 0.000005 8.488930 20.541600 -23.043700 22.291600 -0.000001 0.000005 11.370700 5.232740 1.883830 12.994500 -0.242716 -4.980390 88.501900 8.849930 -80.352400 -5.348130 -0.000001 -0.000004 -60.587100 25.903400 -17.588300 -24.328900 0.000322 -0.000009 1.363260 3.129150 -23.577900 -22.291500 -0.000108 -0.000004 16.811500 5.396600 -2.827380 -2.192480 -6.469440 -0.000000 -178.463000 -5.379040 -21.116700 39.081100 -0.000007 -0.000012 0.012834 -0.011138 49.037300 40.985400 -0.000006 -0.000013 -0.184489 -3.869020 -69.431700 11.754300 -0.000000 0.000003 -0.002348 -0.032999 -17.918700 -2.192510 6.469440 -0.000001 -179.247000 18.653700 167.644000 -39.081100 -0.002282 -0.040193 -0.126975 0.176828 36.377800 -40.985400 0.000008 0.000006 3.333850 1.222510 -72.983200 -11.754300 -0.000006 -0.000006 -0.004606 -0.057599 -18.916400
0.000000 0.000000 0.000000 0.000000 0.000000 -0.000000 0.391578 89.979200 526.543000 -89.964900 -2.399240 -178.738000 15.735700 0.000005 -0.000001 91.723600 80.106200 -91.155500 8.984550 -0.406207 -0.000000 12.010300 0.610960 1.071610 16.377300 -0.000001 -0.000001 2.979580 -5.878560 2.664380 6.456720 -0.000001 -0.000000 -0.689969 -5.656230 2.418140 12.994200 -0.242716 4.980390 -90.824800 2.774620 -73.437400 5.348090 -0.000007 -0.000001 -68.396500 30.791100 -11.287500 24.328600 0.000019 0.000005 8.133070 21.668000 -21.159400 22.291600 -0.000001 0.000005 10.562500 5.227740 2.013700 12.994500 -0.242716 -4.980390 88.586500 8.551660 -80.578400 -5.348130 -0.000001 -0.000004 -59.720500 25.926300 -18.924500 -24.328900 0.000322 -0.000009 1.134990 2.307730 -26.225600 -22.291500 -0.000108 -0.000004 17.114000 5.407770 -3.191810 -2.192480 -6.469440 -0.000000 -178.865000 -5.255420 -22.215200 39.081100 -0.000007 -0.000012 0.006738 -0.007790 40.850900 40.985400 -0.000006 -0.000013 -1.594980 -2.423970 -66.379500 11.754300 -0.000000 0.000003 -0.000638 -0.010121 -16.988600 -2.192510 6.469440 -0.000001 -179.795000 19.545300 169.030000 -39.081100 -0.002282 -0.040193 -0.125581 0.185729 34.755800 -40.985400 0.000008 0.000006 3.446700 2.298490 -73.171100 -11.754300 -0.000006 -0.000006 -0.004123 -0.052715 -18.717500
0.000000 0.000000 0.000000 0.000000 0.000000 -0.000000 0.216812 90.065700 525.120000 -89.989600 -2.037070 -179.186000 15.735700 0.000005 -0.000001 92.794100 80.133900 -92.401200 8.984550 -0.406207 -0.000000 11.940700 0.967827 0.684234 16.377300 -0.000001 -0.000001 2.709470 -5.734550 2.670350 6.456720 -0.000001 -0.000000 -1.041030 -5.640240 2.315400 12.994200 -0.242716 4.980390 -90.860000 2.874660 -73.336400 5.348090 -0.000007 -0.000001 -69.031100 29.976200 -10.401900 24.328600 0.000019 0.000005 8.015490 22.901600 -19.893000 22.291600 -0.000001 0.000005 10.253000 5.211440 2.430770 12.994500 -0.242716 -4.980390 88.656700 8.361160 -80.839100 -5.348130 -0.000001 -0.000004 -58.448000 26.026300 -20.235100 -24.328900 0.000322 -0.000009 1.045410 1.890580 -28.972700 -22.291500 -0.000108 -0.000004 17.255000 5.415380 -3.443940 -2.192480 -6.469440 -0.000000 -179.591000 -5.932420 -23.842500 39.081100 -0.000007 -0.000012 0.105374 -0.156754 33.909800 40.985400 -0.000006 -0.000013 0.449600 0.123387 -62.642000 11.754300 -0.000000 0.000003 -0.001400 -0.020944 -17.428400 -2.192510 6.469440 -0.000001 179.722000 20.315600 170.257000 -39.081100 -0.002282 -0.040193 -0.132262 0.203031 33.729700 -40.985400 0.000008 0.000006 3.620110 3.432680 -73.727700 -11.754300 -0.000006 -0.000006 -0.004627 -0.057810 -18.925000
0.000000 0.000000 0.000000 0.000000 0.000000 -0.000000 -0.102072 89.974500 523.321000 -90.107300 -1.365580 -179.184000 15.735700 0.000005 -0.000001 94.034100 80.015500 -93.880900 8.984550 -0.406207 -0.000000 12.154300 1.398150 0.157484 16.377300 -0.000001 -0.000001 2.703630 -5.586210 2.802600 6.456720 -0.000001 -0.000000 -1.510500 -5.641230 2.240320 12.994200 -0.242716 4.980390 -90.910500 3.019640 -73.212600 5.348090 -0.000007 -0.000001 -69.573800 29.007600 -9.750090 24.328600 0.000019 0.000005 7.649180 23.272000 -18.774000 22.291600 -0.000001 0.000005 10.472100 5.196930 2.795440 12.994500 -0.242716 -4.980390 88.704400 8.338390 -81.136200 -5.348130 -0.000001 -0.000004 -56.841600 26.190600 -21.646300 -24.328900 0.000322 -0.000009 0.956540 1.578790 -31.244600 -22.291500 -0.000108 -0.000004 17.620400 5.417690 -3.519820 -2.192480 -6.469440 -0.000000 179.737000 -7.014910 -25.727600 39.081100 -0.000007 -0.000012 0.072187 -0.121066 30.805600 40.985400 -0.000006 -0.000013 1.155400 2.253320 -58.672500 11.754300 -0.000000 0.000003 -0.001175 -0.017864 -17.303200 -2.192510 6.469440 -0.000001 178.731000 20.807100 171.962000 -39.081100 -0.002282 -0.040193 -0.149772 0.233371 33.260800 -40.985400 0.000008 0.000006 3.489010 4.712060 -74.748300 -11.754300 -0.000006 -0.000006 -0.004974 -0.061211 -19.063600
0.000000 0.000000 0.000000 0.000000 0.000000 -0.000000 -0.478268 89.665800 521.059000 -89.926500 -0.561852 -178.929000 15.735700 0.000005 -0.000001 95.079100 79.904700 -95.092200 8.984550 -0.406207 -0.000000 12.349700 1.770540 -0.217821 16.377300 -0.000001 -0.000001 2.791840 -5.336140 3.025530 6.456720 -0.000001 -0.000000 -1.535710 -5.655230 2.074820 12.994200 -0.242716 4.980390 -90.912600 3.002730 -73.086900 5.348090 -0.000007 -0.000001 -70.074000 28.509300 -9.248260 24.328600 0.000019 0.000005 7.187950 23.196700 -17.754000 22.291600 -0.000001 0.000005 10.678100 5.183410 3.131750 12.994500 -0.242716 -4.980390 88.692500 8.368040 -81.086600 -5.348130 -0.000001 -0.000004 -55.153700 26.774300 -23.372400 -24.328900 0.000322 -0.000009 0.879851 1.385840 -32.448200 -22.291500 -0.000108 -0.000004 18.256000 5.426850 -3.831120 -2.192480 -6.469440 -0.000000 179.296000 -8.526140 -26.621900 39.081100 -0.000007 -0.000012 0.052365 -0.087642 30.857300 40.985400 -0.000006 -0.000013 1.797690 1.861170 -56.807800 11.754300 -0.000000 0.000003 -0.000716 -0.011295 -17.036300 -2.192510 6.469440 -0.000001 178.012000 20.375200 173.970000 -39.081100 -0.002282 -0.040193 -0.123267 0.192926 33.265500 -40.985400 0.000008 0.000006 3.748800 4.899510 -76.341600 -11.754300 -0.000006 -0.000006 -0.004465 -0.056188 -18.859000
0.000000 0.000000 0.000000 0.000000 0.000000 -0.000000 -0.973321 89.176700 518.336000 -90.058800 0.303710 -178.586000 15.735700 0.000005 -0.000001 95.631400 79.933200 -95.935200 8.984550 -0.406207 -0.000000 12.280700 1.945750 -0.816877 16.377300 -0.000001 -0.000001 3.217430 -5.084890 3.247840 6.456720 -0.000001 -0.000000 -1.030550 -5.687200 1.906150 12.994200 -0.242716 4.980390 -90.891700 2.907230 -72.940700 5.348090 -0.000007 -0.000001 -70.454000 28.443400 -8.825870 24.328600 0.000019 0.000005 6.960880 23.648200 -16.929000 22.291600 -0.000001 0.000005 10.450600 5.182600 3.151670 12.994500 -0.242716 -4.980390 88.688300 8.289870 -80.976000 -5.348130 -0.000001 -0.000004 -54.158900 27.251200 -24.703600 -24.328900 0.000322 -0.000009 0.885522 1.373550 -32.846100 -22.291500 -0.000108 -0.000004 18.374500 5.427250 -3.845090 -2.192480 -6.469440 -0.000000 179.218000 -9.058980 -26.651300 39.081100 -0.000007 -0.000012 -0.029153 0.042774 34.277700 40.985400 -0.000006 -0.000013 1.968330 1.620710 -56.774900 11.754300 -0.000000 0.000003 -0.000005 -0.000070 -16.580300 -2.192510 6.469440 -0.000001 177.102000 19.021900 176.078000 -39.081100 -0.002282 -0.040193 0.017200 -0.020792 33.774500 -40.985400 0.000008 0.000006 4.744740 3.886190 -78.526000 -11.754300 -0.000006 -0.000006 -0.003978 -0.051215 -18.656400
0.000000 0.000000 0.000000 0.000000 0.000000 -0.000000 -1.583290 88.614500 515.418000 -90.656800 1.293910 -178.521000 15.735700 0.000005 -0.000001 95.591900 80.199400 -96.349900 8.984550 -0.406207 -0.000000 11.759300 1.867580 -1.707830 16.377300 -0.000001 -0.000001 3.520460 -5.004940 2.995230 6.456720 -0.000001 -0.000000 -0.264020 -5.478850 2.123980 12.994200 -0.242716 4.980390 -90.923900 2.987580 -72.807600 5.348090 -0.000007 -0.000001 -70.499700 28.502200 -8.219480 24.328600 0.000019 0.000005 6.903480 23.937900 -16.615000 22.291600 -0.000001 0.000005 10.152900 5.183490 3.129930 12.994500 -0.242716 -4.980390 88.667400 8.243960 -80.785000 -5.348130 -0.000001 -0.000004 -54.109300 27.462200 -25.171200 -24.328900 0.000322 -0.000009 1.127360 1.729280 -33.132900 -22.291500 -0.000108 -0.000004 18.355300 5.427710 -3.860960 -2.192480 -6.469440 -0.000000 178.879000 -7.664510 -26.654300 39.081100 -0.000007 -0.000012 -0.110977 0.138204 38.764800 40.985400 -0.000006 -0.000013 1.430170 -0.629633 -61.116100 11.754300 -0.000000 0.000003 -0.000058 -0.000647 -16.602600 -2.192510 6.469440 -0.000001 175.739000 16.720400 177.018000 -39.081100 -0.002282 -0.040193 0.023054 -0.027530 35.675600 -40.985400 0.000008 0.000006 3.817510 2.699330 -79.276600 -11.754300 -0.000006 -0.000006 -0.004291 -0.054432 -18.787400
